#!OML:ASF F:\VICON\USERDATA\INSTALL\Justin_Nancy\Justin_Nancy.ASF
:FULLY-SPECIFIED
:DEGREES
85
root -2.04765 17.6933 5.63976 4.94592 30.7181 0.589962
lowerback 10.7582 -2.06099 -7.1164
upperback 0.0961198 -3.47187 2.52721
thorax -5.35877 -1.49176 7.22213
lowerneck -20.5383 -2.69343 -6.21516
upperneck 14.0186 -2.78077 4.94498
head 7.84923 -1.16369 2.31095
rclavicle 4.7112e-014 -1.07344e-014
rhumerus -51.1551 16.3852 -90.1082
rradius 109.098
rwrist -25.6641
rhand -2.2256 24.1886
rfingers 7.12502
rthumb 23.457 -4.40147
lclavicle 4.7112e-014 -1.07344e-014
lhumerus -40.0817 -16.9937 97.0123
lradius 101.925
lwrist 27.3525
lhand -11.8223 9.53087
lfingers 7.12502
lthumb 14.2282 39.0235
rfemur -28.3596 -1.61568 15.1494
rtibia 24.4152
rfoot 2.44175 3.5005
rtoes -18.1374
lfemur 6.99774 -3.74337 -26.8339
ltibia 54.4241
lfoot 22.0808 -3.89773
ltoes 8.06849
86
root -1.86879 17.5997 6.01751 4.46362 30.6887 0.594405
lowerback 11.0606 -1.88858 -6.74399
upperback 0.0683575 -3.2221 2.4089
thorax -5.62829 -1.36513 6.86831
lowerneck -19.7693 -2.72111 -5.93025
upperneck 13.8641 -2.86665 4.54368
head 7.66254 -1.23851 2.12104
rclavicle 9.19379e-015 1.0138e-014
rhumerus -51.0002 16.5569 -90.4218
rradius 109.367
rwrist -26.538
rhand -2.32758 23.7841
rfingers 7.12502
rthumb 23.3592 -4.81846
lclavicle 9.19379e-015 1.0138e-014
lhumerus -40.6316 -16.9819 97.1543
lradius 101.26
lwrist 27.4212
lhand -11.5751 9.69808
lfingers 7.12502
lthumb 14.4665 39.1738
rfemur -28.1493 -2.06236 15.81
rtibia 26.8296
rfoot 1.61881 5.16301
rtoes -9.06185
lfemur 6.00424 -2.88894 -26.1753
ltibia 58.1365
lfoot 21.5567 -4.42923
ltoes 7.56408
87
root -1.69567 17.4983 6.38985 4.1725 30.9539 0.79476
lowerback 11.2108 -1.82621 -6.60089
upperback 0.12959 -3.1345 2.29951
thorax -5.67534 -1.32638 6.663
lowerneck -19.978 -2.80645 -6.18203
upperneck 14.6096 -2.95092 4.70662
head 7.95783 -1.27537 2.20926
rclavicle 1.06101e-013 -8.74653e-015
rhumerus -50.2942 16.996 -90.5053
rradius 109.442
rwrist -27.3978
rhand -2.54606 23.4371
rfingers 7.12502
rthumb 23.1496 -5.19197
lclavicle 1.06101e-013 -8.74653e-015
lhumerus -40.6692 -16.8419 97.1906
lradius 100.391
lwrist 27.3798
lhand -11.679 10.0365
lfingers 7.12502
lthumb 14.3663 39.5194
rfemur -27.8166 -2.39628 16.1545
rtibia 29.4119
rfoot -0.419854 4.76486
rtoes -6.88352
lfemur 4.76526 -2.32094 -25.6316
ltibia 61.991
lfoot 21.0134 -4.24583
ltoes 6.58292
88
root -1.54244 17.3899 6.73799 3.65477 31.1608 0.431677
lowerback 11.6439 -1.74282 -6.1203
upperback 0.245569 -2.97183 2.45359
thorax -5.83615 -1.2523 6.55131
lowerneck -21.9663 -2.99047 -7.74267
upperneck 16.7802 -2.94235 6.07234
head 9.08539 -1.20108 2.95028
rclavicle 2.15681e-014 -1.96797e-014
rhumerus -49.4043 17.4644 -90.4779
rradius 109.736
rwrist -28.1199
rhand -2.95975 23.0487
rfingers 7.12502
rthumb 22.7526 -5.62965
lclavicle 2.15681e-014 -1.96797e-014
lhumerus -40.5692 -16.4441 97.2794
lradius 99.8706
lwrist 27.2696
lhand -12.1168 10.6009
lfingers 7.12502
lthumb 13.9444 40.1133
rfemur -27.4509 -2.20487 16.9415
rtibia 31.9872
rfoot -2.85297 2.40234
rtoes -7.21676
lfemur 3.11394 -1.57817 -24.4744
ltibia 66.0358
lfoot 20.1701 -4.13878
ltoes 5.30337
89
root -1.41231 17.263 7.06213 2.61171 30.7288 -0.951411
lowerback 12.6156 -1.5005 -4.84486
upperback 0.176997 -2.49392 2.77811
thorax -6.5672 -1.01606 6.15195
lowerneck -21.5866 -2.82447 -7.47545
upperneck 16.6113 -2.73527 5.67325
head 8.9351 -1.13606 2.79462
rclavicle -1.20265e-014 4.09496e-014
rhumerus -48.7586 17.8644 -90.63
rradius 110.211
rwrist -28.6524
rhand -2.82654 22.9616
rfingers 7.12502
rthumb 22.8804 -5.70101
lclavicle -1.20265e-014 4.09496e-014
lhumerus -41.3145 -15.7044 97.353
lradius 99.9359
lwrist 26.9456
lhand -12.3439 10.8633
lfingers 7.12502
lthumb 13.7256 40.3906
rfemur -27.1938 -1.10133 18.7492
rtibia 34.6663
rfoot -5.57598 0.628322
rtoes -10.1819
lfemur 1.18001 -0.0400264 -22.1628
ltibia 70.0617
lfoot 19.2434 -4.42719
ltoes 4.53445
90
root -1.30073 17.1606 7.4221 1.62004 30.4788 -2.89602
lowerback 13.1129 -1.32432 -3.53256
upperback -0.00170398 -2.03682 3.32003
thorax -7.12708 -0.800677 5.93741
lowerneck -21.2088 -2.55603 -6.94589
upperneck 16.6041 -2.43638 5.10263
head 8.83057 -1.02962 2.55172
rclavicle -1.15941e-013 5.32743e-014
rhumerus -47.8445 18.3242 -90.7051
rradius 110.415
rwrist -28.8825
rhand -2.97971 23.0214
rfingers 7.12502
rthumb 22.7334 -5.65927
lclavicle -1.15941e-013 5.32743e-014
lhumerus -42.1492 -14.8858 97.4325
lradius 100.021
lwrist 26.5341
lhand -12.1615 10.9669
lfingers 7.12502
lthumb 13.9014 40.4823
rfemur -26.7742 0.797712 21.0981
rtibia 36.7195
rfoot -8.03559 -0.663239
rtoes -8.8039
lfemur -1.02007 1.43219 -18.8721
ltibia 73.922
lfoot 17.8518 -5.47611
ltoes 3.22794
91
root -1.10735 17.0735 7.82811 1.88807 32.026 -0.622001
lowerback 13.6109 -1.55136 -4.99363
upperback 0.200845 -2.62089 2.78972
thorax -7.07645 -1.05086 6.32633
lowerneck -21.3041 -2.4756 -6.96653
upperneck 16.8681 -2.29834 5.00373
head 8.92791 -0.977555 2.5429
rclavicle 5.14852e-014 -2.34566e-014
rhumerus -46.7047 18.7825 -90.6148
rradius 110.554
rwrist -29.0039
rhand -3.8297 22.7341
rfingers 7.12502
rthumb 21.9175 -6.04445
lclavicle 5.14852e-014 -2.34566e-014
lhumerus -42.8816 -14.2343 97.5926
lradius 100.079
lwrist 26.1892
lhand -12.2047 11.1755
lfingers 7.12502
lthumb 13.8597 40.6937
rfemur -24.783 -0.187706 19.1894
rtibia 38.3185
rfoot -10.3277 -4.03099
rtoes -10.1651
lfemur -1.60274 0.625157 -20.5806
ltibia 76.6998
lfoot 16.6848 -5.12925
ltoes 2.03981
